<?xml version="1.0" encoding="utf-8"?>
<!-- Generator: Adobe Illustrator 15.1.0, SVG Export Plug-In . SVG Version: 6.00 Build 0)  -->
<!DOCTYPE svg PUBLIC "-//W3C//DTD SVG 1.1//EN" "http://www.w3.org/Graphics/SVG/1.1/DTD/svg11.dtd">
<svg version="1.1" id="Layer_1" xmlns="http://www.w3.org/2000/svg" xmlns:xlink="http://www.w3.org/1999/xlink" x="0px" y="0px"
	 width="17px" height="37px" viewBox="0 0 17 37" enable-background="new 0 0 17 37" xml:space="preserve">
<path opacity="0.1" fill-rule="evenodd" clip-rule="evenodd" d="M2,22h15v15H2V22z"/>
<path opacity="0.1" fill-rule="evenodd" clip-rule="evenodd" d="M2,2h15v15H2V2z"/>
<path fill-rule="evenodd" clip-rule="evenodd" fill="#FFFFFF" d="M0,0h15v15H0V0z"/>
<path fill-rule="evenodd" clip-rule="evenodd" fill="#FFFFFF" d="M0,20h15v15H0V20z"/>
<path fill="#1B2124" d="M6.436,26.521c-0.439-0.313-0.853-0.47-1.239-0.47c-0.352,0-0.757,0.161-1.217,0.483s-0.69,0.7-0.69,1.134
	c0,0.299,0.202,0.671,0.606,1.116c0.703,0.773,1.239,1.444,1.608,2.013c0.357,0.539,0.574,0.844,0.65,0.914s0.185,0.136,0.325,0.198
	S6.943,32,7.447,32c0.639,0,1.061-0.063,1.266-0.189s0.357-0.262,0.457-0.409s0.322-0.642,0.668-1.485
	c0.732-1.84,1.723-3.741,2.971-5.704s2.449-3.475,3.604-4.535c0.24-0.229,0.398-0.4,0.475-0.514S17,18.914,17,18.755
	c0-0.205-0.066-0.371-0.198-0.497s-0.3-0.189-0.505-0.189c-0.311,0-0.768,0.047-1.371,0.141s-1.024,0.243-1.261,0.448
	s-0.527,0.482-0.87,0.831s-0.888,1.056-1.635,2.123s-1.417,2.136-2.008,3.208s-1.102,2.057-1.529,2.953
	C7.271,27.251,6.875,26.834,6.436,26.521z"/>
</svg>
