<?xml version="1.0" encoding="utf-8"?>
<!-- Generator: Adobe Illustrator 15.1.0, SVG Export Plug-In . SVG Version: 6.00 Build 0)  -->
<!DOCTYPE svg PUBLIC "-//W3C//DTD SVG 1.1//EN" "http://www.w3.org/Graphics/SVG/1.1/DTD/svg11.dtd">
<svg version="1.1" id="Layer_1" xmlns="http://www.w3.org/2000/svg" xmlns:xlink="http://www.w3.org/1999/xlink" x="0px" y="0px"
	 width="18px" height="18px" viewBox="0 0 18 18" enable-background="new 0 0 18 18" xml:space="preserve">
<path opacity="0.33" fill="#838586" d="M17.535,15.289l-3.885-3.885c0.739-1.153,1.174-2.521,1.174-3.993
	C14.824,3.318,11.505,0,7.412,0C3.318,0,0,3.318,0,7.412c0,4.094,3.318,7.412,7.412,7.412c1.472,0,2.839-0.435,3.993-1.174
	l3.885,3.885c0.31,0.31,0.716,0.465,1.123,0.465c0.407,0,0.813-0.155,1.123-0.465C18.155,16.915,18.155,15.909,17.535,15.289z
	 M2.118,7.412c0-2.919,2.375-5.294,5.294-5.294s5.294,2.375,5.294,5.294s-2.375,5.294-5.294,5.294S2.118,10.331,2.118,7.412z"/>
</svg>
