<?xml version="1.0" encoding="utf-8"?>
<!-- Generator: Adobe Illustrator 15.1.0, SVG Export Plug-In . SVG Version: 6.00 Build 0)  -->
<!DOCTYPE svg PUBLIC "-//W3C//DTD SVG 1.1//EN" "http://www.w3.org/Graphics/SVG/1.1/DTD/svg11.dtd">
<svg version="1.1" id="Layer_1" xmlns="http://www.w3.org/2000/svg" xmlns:xlink="http://www.w3.org/1999/xlink" x="0px" y="0px"
	 width="17px" height="36px" viewBox="0 0 17 36" enable-background="new 0 0 17 36" xml:space="preserve">
<path opacity="0.1" fill-rule="evenodd" clip-rule="evenodd" d="M9.25,1.5c4.143,0,7.5,3.357,7.5,7.5s-3.357,7.5-7.5,7.5
	s-7.5-3.357-7.5-7.5S5.107,1.5,9.25,1.5z"/>
<path fill-rule="evenodd" clip-rule="evenodd" fill="#FFFFFF" d="M7.75,0c4.143,0,7.5,3.357,7.5,7.5S11.893,15,7.75,15
	s-7.5-3.357-7.5-7.5S3.607,0,7.75,0z"/>
<path opacity="0.1" fill-rule="evenodd" clip-rule="evenodd" d="M9.25,21c4.143,0,7.5,3.357,7.5,7.5S13.393,36,9.25,36
	s-7.5-3.357-7.5-7.5S5.107,21,9.25,21z"/>
<path fill-rule="evenodd" clip-rule="evenodd" fill="#FFFFFF" d="M7.75,19.5c4.143,0,7.5,3.357,7.5,7.5s-3.357,7.5-7.5,7.5
	s-7.5-3.357-7.5-7.5S3.607,19.5,7.75,19.5z"/>
<path fill-rule="evenodd" clip-rule="evenodd" fill="#1B2124" d="M7.75,22c2.762,0,5,2.238,5,5s-2.238,5-5,5s-5-2.238-5-5
	S4.988,22,7.75,22z"/>
</svg>
